PathFileType	4	(X/Y/Z)	3_coords_data.trc
DataRate	CameraRate	NumFrames	NumMarkers	Units	OrigDataRate	OrigDataStartFrame	OrigNumFrames
30.0	30.0	6	21	m	30.0	20	48
Frame#	Time	THUMB_TIP	THUMB_IP	THUMB_MCP	THUMB_CMC	INDEX_TIP	INDEX_DIP	INDEX_PIP	INDEX_MCP	MIDDLE_TIP	MIDDLE_DIP	MIDDLE_PIP	MIDDLE_MCP	RING_TIP	RING_DIP	RING_PIP	RING_MCP	PINKY_TIP	PINKY_DIP	PINKY_PIP	PINKY_MCP	WRIST
X1	Y1	Z1	X2	Y2	Z2	X3	Y3	Z3	X4	Y4	Z4	X5	Y5	Z5	X6	Y6	Z6	X7	Y7	Z7	X8	Y8	Z8	X9	Y9	Z9	X10	Y10	Z10	X11	Y11	Z11	X12	Y12	Z12	X13	Y13	Z13	X14	Y14	Z14	X15	Y15	Z15	X16	Y16	Z16	X17	Y17	Z17	X18	Y18	Z18	X19	Y19	Z19	X20	Y20	Z20	X21	Y21	Z21
19	0.6333333333333333	-0.06350149917602539	-0.09951020050048828	0.9572039794921875	-0.07204869842529296	-0.08857879638671876	0.9823499755859375	-0.08202320098876953	-0.0825436019897461	1.013239990234375	-0.08886000061035157	-0.05925410079956055	1.040800048828125	-0.0506864013671875	-0.054822399139404294	0.906427001953125	-0.0639645004272461	-0.05723619842529297	0.9258740234375	-0.07662840270996094	-0.05926940155029297	0.9466909790039062	-0.09077179718017578	-0.06090219879150391	0.9825609741210938	-0.05048680114746094	-0.02956030082702637	0.9003699951171875	-0.06349990081787109	-0.031962499618530274	0.9209609985351562	-0.07849400329589844	-0.03499089813232422	0.9463109741210938	-0.09338279724121094	-0.038823699951171874	0.9829810180664063	-0.04800659942626953	-0.004631360054016113	0.9235349731445313	-0.06472840118408203	-0.006681260108947754	0.9379340209960938	-0.08284190368652344	-0.0107701997756958	0.9566900024414062	-0.09591470336914062	-0.020225900650024414	0.9915070190429688	-0.052628799438476564	0.014324600219726563	0.9500449829101563	-0.06733769989013672	0.011431699752807617	0.9628579711914063	-0.07982649993896485	0.006524909973144531	0.97668798828125	-0.09039559936523438	-0.003920480012893676	1.0016400146484374	-0.11223699951171875	-0.036054698944091794	1.0623900146484375
20	0.6666666666666666	-0.06325719833374023	-0.09952999877929687	0.95743798828125	-0.071822998046875	-0.08865119934082032	0.9825880126953125	-0.08183699798583985	-0.08257499694824219	1.0134600219726562	-0.08871029663085937	-0.059268798828125	1.04093994140625	-0.050911998748779295	-0.05507379913330078	0.9063720092773437	-0.06412920379638672	-0.05744990158081055	0.925968994140625	-0.07666560363769531	-0.05942430114746094	0.9469099731445313	-0.09054709625244141	-0.060997600555419924	0.9825780029296876	-0.050577701568603514	-0.029670499801635743	0.900426025390625	-0.06362659835815429	-0.0321057014465332	0.9210900268554687	-0.07849349975585937	-0.035095500946044925	0.9464719848632812	-0.09293170166015625	-0.03891400146484375	0.9826409912109375	-0.047975101470947266	-0.0046567201614379885	0.9236110229492187	-0.06468150329589843	-0.006754809856414795	0.938093017578125	-0.08274150085449218	-0.010849200248718261	0.9568510131835938	-0.09575910186767578	-0.020313899993896486	0.9916069946289062	-0.05259939956665039	0.014399900436401367	0.9501840209960938	-0.06732460021972657	0.011442000389099122	0.9630180053710937	-0.07986019897460937	0.006503769874572754	0.9769210205078125	-0.09030729675292969	-0.003974679946899414	1.00172998046875	-0.11217500305175782	-0.036226600646972654	1.0626199951171875
21	0.7	-0.06319319915771485	-0.09958650207519532	0.9575819702148437	-0.07170050048828125	-0.08875330352783203	0.98268798828125	-0.08181950378417968	-0.08260279846191407	1.0136099853515625	-0.0887291030883789	-0.059276500701904294	1.0410999755859376	-0.05108089828491211	-0.05523519897460937	0.9062849731445313	-0.06410900115966797	-0.057581298828125	0.9260089721679687	-0.07649169921875	-0.05951070022583008	0.9469650268554688	-0.09049819946289063	-0.06106750106811523	0.9827429809570313	-0.05031499862670898	-0.02975950050354004	0.900614990234375	-0.06334040069580078	-0.03212879943847656	0.9211950073242188	-0.0782957992553711	-0.03508470153808594	0.946614013671875	-0.09286239624023437	-0.03892020034790039	0.9827730102539063	-0.047745201110839845	-0.004683410167694092	0.9238060302734376	-0.06457340240478515	-0.006765079975128174	0.9381900024414063	-0.08262989807128907	-0.010892800331115723	0.9569609985351563	-0.095677001953125	-0.02034359931945801	0.9917630004882813	-0.05254930114746094	0.014409000396728516	0.9502960205078125	-0.06726920318603516	0.011450599670410157	0.9631519775390625	-0.07979859924316406	0.0064676799774169924	0.9770750122070313	-0.09019760131835937	-0.0040377798080444335	1.0019199829101562	-0.11221199798583985	-0.03620000076293945	1.0626199951171875
22	0.7333333333333333	-0.06318999862670899	-0.0995792007446289	0.9575980224609375	-0.07173519897460938	-0.08863069915771485	0.9827369995117188	-0.08180239868164063	-0.0825906982421875	1.0136400146484374	-0.08875270080566407	-0.05928730010986328	1.0411099853515624	-0.051458301544189455	-0.05535549926757812	0.9060960083007813	-0.06424759674072265	-0.05765599822998047	0.9258679809570313	-0.07662210083007813	-0.05956129837036133	0.9470180053710937	-0.09047470092773438	-0.061032501220703125	0.9827789916992188	-0.05037490081787109	-0.029747299194335938	0.900593017578125	-0.06340959930419922	-0.032153099060058594	0.9213170166015625	-0.07827020263671874	-0.03510329818725586	0.9466959838867187	-0.0928104019165039	-0.038893299102783205	0.98277197265625	-0.04772710037231445	-0.004662630081176758	0.9238729858398438	-0.0645720977783203	-0.0067388200759887695	0.9382529907226562	-0.08262570190429687	-0.01086970043182373	0.9569990234375	-0.09563719940185547	-0.02031570053100586	0.9917039794921875	-0.05260979843139649	0.014573800086975097	0.9502940063476563	-0.06722599792480469	0.011518099784851073	0.963239013671875	-0.07980760192871093	0.006502799987792969	0.9771339721679687	-0.09021170043945312	-0.004009180068969727	1.0018800048828125	-0.1122239990234375	-0.0361776008605957	1.06275
23	0.7666666666666667	-0.06311280059814453	-0.0996060028076172	0.9576699829101563	-0.07175910186767578	-0.08861409759521484	0.9828690185546874	-0.08177909851074219	-0.08261409759521485	1.0136599731445313	-0.08876570129394531	-0.05930059814453125	1.0411199951171874	-0.05174020004272461	-0.05548699951171875	0.906010009765625	-0.06448400115966797	-0.057801998138427735	0.9257919921875	-0.0767063980102539	-0.05967919921875	0.9469959716796875	-0.0904113998413086	-0.061053199768066405	0.9827080078125	-0.050364898681640624	-0.029834299087524413	0.9006259765625	-0.06343500137329101	-0.0322244987487793	0.92125	-0.07828309631347656	-0.03518050003051758	0.946593994140625	-0.09287120056152344	-0.03893349838256836	0.9828309936523437	-0.047798198699951173	-0.004696010112762451	0.9238690185546875	-0.06458580017089843	-0.006786210060119629	0.9382050170898437	-0.08254669952392578	-0.01090590000152588	0.9570540161132812	-0.09571019744873047	-0.02033090019226074	0.99177099609375	-0.052593700408935545	0.014513999938964843	0.95035400390625	-0.06727870178222656	0.011522899627685547	0.9632459716796875	-0.07974349975585937	0.006515039920806885	0.9771430053710938	-0.09025029754638672	-0.004004039764404297	1.0018499755859376	-0.1123270034790039	-0.03612860107421875	1.0628199462890624
24	0.8	-0.06314910125732422	-0.09959089660644531	0.9576640014648438	-0.07170169830322265	-0.08871499633789062	0.9827589721679687	-0.08182720184326171	-0.08260099792480469	1.0136599731445313	-0.08883260345458985	-0.05930580139160156	1.0411500244140626	-0.05198720169067383	-0.05562089920043945	0.9057750244140625	-0.06468869781494141	-0.057908599853515624	0.925760986328125	-0.07677770233154296	-0.05975460052490234	0.9470910034179687	-0.09042109680175782	-0.06103469848632812	0.982781005859375	-0.05039609909057617	-0.02983359909057617	0.9006329956054687	-0.06346789932250976	-0.032214698791503904	0.921281005859375	-0.07827610015869141	-0.03516429901123047	0.946698974609375	-0.09273670196533203	-0.03894649887084961	0.9827369995117188	-0.047769298553466795	-0.004660799980163575	0.9238989868164063	-0.06458670043945312	-0.006761240005493164	0.938343017578125	-0.08264769744873048	-0.01090820026397705	0.9571019897460937	-0.09558519744873047	-0.020401599884033204	0.991864990234375	-0.05262850189208984	0.014590700149536133	0.9503569946289062	-0.06730020141601563	0.011539600372314452	0.9632379760742188	-0.07972889709472657	0.006504389762878418	0.9771240234375	-0.09026750183105468	-0.00403656005859375	1.0019500122070313	-0.11235199737548827	-0.0362864990234375	1.062739990234375
